<?xml version="1.0" encoding="UTF-8"?>
<svg id="_圖層_2" data-name="圖層 2" xmlns="http://www.w3.org/2000/svg" viewBox="0 0 326.45 240.54">
  <defs>
    <style>
      .cls-1 {
        fill: #fbc800;
      }

      .cls-2 {
        fill: #fff;
      }

      .cls-3 {
        fill: #998d86;
      }
    </style>
  </defs>
  <g id="_Layer_" data-name="&amp;lt;Layer&amp;gt;">
    <g>
      <rect x="51.54" width="17.18" height="17.18"/>
      <rect x="68.73" width="17.18" height="17.18"/>
      <rect x="85.91" width="17.18" height="17.18"/>
      <rect x="103.09" width="17.18" height="17.18"/>
      <rect x="120.27" width="17.18" height="17.18"/>
      <rect x="189" width="17.18" height="17.18"/>
      <rect x="206.18" width="17.18" height="17.18"/>
      <rect x="223.36" width="17.18" height="17.18"/>
      <rect x="240.54" width="17.18" height="17.18"/>
      <rect x="257.72" width="17.18" height="17.18"/>
      <rect x="34.36" y="17.18" width="17.18" height="17.18"/>
      <rect class="cls-2" x="51.54" y="17.18" width="17.18" height="17.18"/>
      <rect class="cls-2" x="68.73" y="17.18" width="17.18" height="17.18"/>
      <rect class="cls-2" x="85.91" y="17.18" width="17.18" height="17.18"/>
      <rect class="cls-2" x="103.09" y="17.18" width="17.18" height="17.18"/>
      <rect class="cls-2" x="120.27" y="17.18" width="17.18" height="17.18"/>
      <rect x="137.45" y="17.18" width="17.18" height="17.18"/>
      <rect x="171.81" y="17.18" width="17.18" height="17.18"/>
      <rect class="cls-2" x="189" y="17.18" width="17.18" height="17.18"/>
      <rect class="cls-2" x="206.18" y="17.18" width="17.18" height="17.18"/>
      <rect class="cls-2" x="223.36" y="17.18" width="17.18" height="17.18"/>
      <rect class="cls-2" x="240.54" y="17.18" width="17.18" height="17.18"/>
      <rect class="cls-2" x="257.72" y="17.18" width="17.18" height="17.18"/>
      <rect x="274.9" y="17.18" width="17.18" height="17.18"/>
      <rect x="17.18" y="34.36" width="17.18" height="17.18"/>
      <rect x="34.36" y="34.36" width="17.18" height="17.18"/>
      <rect class="cls-2" x="51.54" y="34.36" width="17.18" height="17.18"/>
      <rect class="cls-2" x="68.73" y="34.36" width="17.18" height="17.18"/>
      <rect class="cls-2" x="85.91" y="34.36" width="17.18" height="17.18"/>
      <rect class="cls-2" x="103.09" y="34.36" width="17.18" height="17.18"/>
      <rect class="cls-2" x="120.27" y="34.36" width="17.18" height="17.18"/>
      <rect class="cls-2" x="137.45" y="34.36" width="17.18" height="17.18"/>
      <rect x="154.63" y="34.36" width="17.18" height="17.18"/>
      <rect class="cls-2" x="171.81" y="34.36" width="17.18" height="17.18"/>
      <rect class="cls-2" x="189" y="34.36" width="17.18" height="17.18"/>
      <rect class="cls-2" x="206.18" y="34.36" width="17.18" height="17.18"/>
      <rect class="cls-2" x="223.36" y="34.36" width="17.18" height="17.18"/>
      <rect class="cls-2" x="240.54" y="34.36" width="17.18" height="17.18"/>
      <rect class="cls-2" x="257.72" y="34.36" width="17.18" height="17.18"/>
      <rect x="274.9" y="34.36" width="17.18" height="17.18"/>
      <rect x="292.08" y="34.36" width="17.18" height="17.18"/>
      <rect y="51.54" width="17.18" height="17.18"/>
      <rect class="cls-1" x="17.18" y="51.54" width="17.18" height="17.18"/>
      <rect x="34.36" y="51.54" width="17.18" height="17.18"/>
      <rect class="cls-2" x="51.54" y="51.54" width="17.18" height="17.18"/>
      <rect class="cls-3" x="68.73" y="51.54" width="17.18" height="17.18"/>
      <rect class="cls-3" x="85.91" y="51.54" width="17.18" height="17.18"/>
      <rect class="cls-3" x="103.09" y="51.54" width="17.18" height="17.18"/>
      <rect class="cls-3" x="120.27" y="51.54" width="17.18" height="17.18"/>
      <rect class="cls-2" x="137.45" y="51.54" width="17.18" height="17.18"/>
      <rect x="154.63" y="51.54" width="17.18" height="17.18"/>
      <rect class="cls-2" x="171.81" y="51.54" width="17.18" height="17.18"/>
      <rect class="cls-3" x="189" y="51.54" width="17.18" height="17.18"/>
      <rect class="cls-3" x="206.18" y="51.54" width="17.18" height="17.18"/>
      <rect class="cls-3" x="223.36" y="51.54" width="17.18" height="17.18"/>
      <rect class="cls-3" x="240.54" y="51.54" width="17.18" height="17.18"/>
      <rect class="cls-2" x="257.72" y="51.54" width="17.18" height="17.18"/>
      <rect x="274.9" y="51.54" width="17.18" height="17.18"/>
      <rect class="cls-1" x="292.08" y="51.54" width="17.18" height="17.18"/>
      <rect x="309.27" y="51.54" width="17.18" height="17.18"/>
      <rect y="68.73" width="17.18" height="17.18"/>
      <rect class="cls-1" x="17.18" y="68.73" width="17.18" height="17.18"/>
      <rect x="34.36" y="68.73" width="17.18" height="17.18"/>
      <rect class="cls-2" x="51.54" y="68.73" width="17.18" height="17.18"/>
      <rect class="cls-2" x="68.73" y="68.73" width="17.18" height="17.18"/>
      <rect class="cls-2" x="85.91" y="68.73" width="17.18" height="17.18"/>
      <rect class="cls-2" x="103.09" y="68.73" width="17.18" height="17.18"/>
      <rect class="cls-2" x="120.27" y="68.73" width="17.18" height="17.18"/>
      <rect class="cls-2" x="137.45" y="68.73" width="17.18" height="17.18"/>
      <rect x="154.63" y="68.73" width="17.18" height="17.18"/>
      <rect class="cls-2" x="171.81" y="68.73" width="17.18" height="17.18"/>
      <rect class="cls-2" x="189" y="68.73" width="17.18" height="17.18"/>
      <rect class="cls-2" x="206.18" y="68.73" width="17.18" height="17.18"/>
      <rect class="cls-2" x="223.36" y="68.73" width="17.18" height="17.18"/>
      <rect class="cls-2" x="240.54" y="68.73" width="17.18" height="17.18"/>
      <rect class="cls-2" x="257.72" y="68.73" width="17.18" height="17.18"/>
      <rect x="274.9" y="68.73" width="17.18" height="17.18"/>
      <rect class="cls-1" x="292.08" y="68.73" width="17.18" height="17.18"/>
      <rect x="309.27" y="68.73" width="17.18" height="17.18"/>
      <rect y="85.91" width="17.18" height="17.18"/>
      <rect class="cls-1" x="17.18" y="85.91" width="17.18" height="17.18"/>
      <rect x="34.36" y="85.91" width="17.18" height="17.18"/>
      <rect class="cls-2" x="51.54" y="85.91" width="17.18" height="17.18"/>
      <rect class="cls-3" x="68.73" y="85.91" width="17.18" height="17.18"/>
      <rect class="cls-3" x="85.91" y="85.91" width="17.18" height="17.18"/>
      <rect class="cls-3" x="103.09" y="85.91" width="17.18" height="17.18"/>
      <rect class="cls-3" x="120.27" y="85.91" width="17.18" height="17.18"/>
      <rect class="cls-2" x="137.45" y="85.91" width="17.18" height="17.18"/>
      <rect x="154.63" y="85.91" width="17.18" height="17.18"/>
      <rect class="cls-2" x="171.81" y="85.91" width="17.18" height="17.18"/>
      <rect class="cls-3" x="189" y="85.91" width="17.18" height="17.18"/>
      <rect class="cls-3" x="206.18" y="85.91" width="17.18" height="17.18"/>
      <rect class="cls-3" x="223.36" y="85.91" width="17.18" height="17.18"/>
      <rect class="cls-3" x="240.54" y="85.91" width="17.18" height="17.18"/>
      <rect class="cls-2" x="257.72" y="85.91" width="17.18" height="17.18"/>
      <rect x="274.9" y="85.91" width="17.18" height="17.18"/>
      <rect class="cls-1" x="292.08" y="85.91" width="17.18" height="17.18"/>
      <rect x="309.27" y="85.91" width="17.18" height="17.18"/>
      <rect y="103.09" width="17.18" height="17.18"/>
      <rect class="cls-1" x="17.18" y="103.09" width="17.18" height="17.18"/>
      <rect x="34.36" y="103.09" width="17.18" height="17.18"/>
      <rect class="cls-2" x="51.54" y="103.09" width="17.18" height="17.18"/>
      <rect class="cls-2" x="68.73" y="103.09" width="17.18" height="17.18"/>
      <rect class="cls-2" x="85.91" y="103.09" width="17.18" height="17.18"/>
      <rect class="cls-2" x="103.09" y="103.09" width="17.18" height="17.18"/>
      <rect class="cls-2" x="120.27" y="103.09" width="17.18" height="17.18"/>
      <rect class="cls-2" x="137.45" y="103.09" width="17.18" height="17.18"/>
      <rect x="154.63" y="103.09" width="17.18" height="17.18"/>
      <rect class="cls-2" x="171.81" y="103.09" width="17.18" height="17.18"/>
      <rect class="cls-2" x="189" y="103.09" width="17.18" height="17.18"/>
      <rect class="cls-2" x="206.18" y="103.09" width="17.18" height="17.18"/>
      <rect class="cls-2" x="223.36" y="103.09" width="17.18" height="17.18"/>
      <rect class="cls-2" x="240.54" y="103.09" width="17.18" height="17.18"/>
      <rect class="cls-2" x="257.72" y="103.09" width="17.18" height="17.18"/>
      <rect x="274.9" y="103.09" width="17.18" height="17.18"/>
      <rect class="cls-1" x="292.08" y="103.09" width="17.18" height="17.18"/>
      <rect x="309.27" y="103.09" width="17.18" height="17.18"/>
      <rect y="120.27" width="17.18" height="17.18"/>
      <rect class="cls-1" x="17.18" y="120.27" width="17.18" height="17.18"/>
      <rect x="34.36" y="120.27" width="17.18" height="17.18"/>
      <rect class="cls-2" x="51.54" y="120.27" width="17.18" height="17.18"/>
      <rect class="cls-3" x="68.73" y="120.27" width="17.18" height="17.18"/>
      <rect class="cls-3" x="85.91" y="120.27" width="17.18" height="17.18"/>
      <rect class="cls-3" x="103.09" y="120.27" width="17.18" height="17.18"/>
      <rect class="cls-3" x="120.27" y="120.27" width="17.18" height="17.18"/>
      <rect class="cls-2" x="137.45" y="120.27" width="17.18" height="17.18"/>
      <rect x="154.63" y="120.27" width="17.18" height="17.18"/>
      <rect class="cls-2" x="171.81" y="120.27" width="17.18" height="17.18"/>
      <rect class="cls-3" x="189" y="120.27" width="17.18" height="17.18"/>
      <rect class="cls-3" x="206.18" y="120.27" width="17.18" height="17.18"/>
      <rect class="cls-3" x="223.36" y="120.27" width="17.18" height="17.18"/>
      <rect class="cls-3" x="240.54" y="120.27" width="17.18" height="17.18"/>
      <rect class="cls-2" x="257.72" y="120.27" width="17.18" height="17.18"/>
      <rect x="274.9" y="120.27" width="17.18" height="17.18"/>
      <rect class="cls-1" x="292.08" y="120.27" width="17.18" height="17.18"/>
      <rect x="309.27" y="120.27" width="17.18" height="17.18"/>
      <rect y="137.45" width="17.18" height="17.18"/>
      <rect class="cls-1" x="17.18" y="137.45" width="17.18" height="17.18"/>
      <rect x="34.36" y="137.45" width="17.18" height="17.18"/>
      <rect class="cls-2" x="51.54" y="137.45" width="17.18" height="17.18"/>
      <rect class="cls-2" x="68.73" y="137.45" width="17.18" height="17.18"/>
      <rect class="cls-2" x="85.91" y="137.45" width="17.18" height="17.18"/>
      <rect class="cls-2" x="103.09" y="137.45" width="17.18" height="17.18"/>
      <rect class="cls-2" x="120.27" y="137.45" width="17.18" height="17.18"/>
      <rect class="cls-2" x="137.45" y="137.45" width="17.18" height="17.18"/>
      <rect x="154.63" y="137.45" width="17.18" height="17.18"/>
      <rect class="cls-2" x="171.81" y="137.45" width="17.18" height="17.18"/>
      <rect class="cls-2" x="189" y="137.45" width="17.18" height="17.18"/>
      <rect class="cls-2" x="206.18" y="137.45" width="17.18" height="17.18"/>
      <rect class="cls-2" x="223.36" y="137.45" width="17.18" height="17.18"/>
      <rect class="cls-2" x="240.54" y="137.45" width="17.18" height="17.18"/>
      <rect class="cls-2" x="257.72" y="137.45" width="17.18" height="17.18"/>
      <rect x="274.9" y="137.45" width="17.18" height="17.18"/>
      <rect class="cls-1" x="292.08" y="137.45" width="17.18" height="17.18"/>
      <rect x="309.27" y="137.45" width="17.18" height="17.18"/>
      <rect y="154.63" width="17.18" height="17.18"/>
      <rect class="cls-1" x="17.18" y="154.63" width="17.18" height="17.18"/>
      <rect x="34.36" y="154.63" width="17.18" height="17.18"/>
      <rect class="cls-2" x="51.54" y="154.63" width="17.18" height="17.18"/>
      <rect class="cls-2" x="68.73" y="154.63" width="17.18" height="17.18"/>
      <rect class="cls-2" x="85.91" y="154.63" width="17.18" height="17.18"/>
      <rect class="cls-2" x="103.09" y="154.63" width="17.18" height="17.18"/>
      <rect class="cls-2" x="120.27" y="154.63" width="17.18" height="17.18"/>
      <rect class="cls-2" x="137.45" y="154.63" width="17.18" height="17.18"/>
      <rect x="154.63" y="154.63" width="17.18" height="17.18"/>
      <rect class="cls-2" x="171.81" y="154.63" width="17.18" height="17.18"/>
      <rect class="cls-2" x="189" y="154.63" width="17.18" height="17.18"/>
      <rect class="cls-2" x="206.18" y="154.63" width="17.18" height="17.18"/>
      <rect class="cls-2" x="223.36" y="154.63" width="17.18" height="17.18"/>
      <rect class="cls-2" x="240.54" y="154.63" width="17.18" height="17.18"/>
      <rect class="cls-2" x="257.72" y="154.63" width="17.18" height="17.18"/>
      <rect x="274.9" y="154.63" width="17.18" height="17.18"/>
      <rect class="cls-1" x="292.08" y="154.63" width="17.18" height="17.18"/>
      <rect x="309.27" y="154.63" width="17.18" height="17.18"/>
      <rect y="171.81" width="17.18" height="17.18"/>
      <rect class="cls-1" x="17.18" y="171.81" width="17.18" height="17.18"/>
      <rect x="34.36" y="171.81" width="17.18" height="17.18"/>
      <rect x="51.54" y="171.81" width="17.18" height="17.18"/>
      <rect x="68.73" y="171.81" width="17.18" height="17.18"/>
      <rect x="85.91" y="171.81" width="17.18" height="17.18"/>
      <rect x="103.09" y="171.81" width="17.18" height="17.18"/>
      <rect x="120.27" y="171.81" width="17.18" height="17.18"/>
      <rect class="cls-2" x="137.45" y="171.81" width="17.18" height="17.18"/>
      <rect x="154.63" y="171.81" width="17.18" height="17.18"/>
      <rect class="cls-2" x="171.81" y="171.81" width="17.18" height="17.18"/>
      <rect x="189" y="171.81" width="17.18" height="17.18"/>
      <rect x="206.18" y="171.81" width="17.18" height="17.18"/>
      <rect x="223.36" y="171.81" width="17.18" height="17.18"/>
      <rect x="240.54" y="171.81" width="17.18" height="17.18"/>
      <rect x="257.72" y="171.81" width="17.18" height="17.18"/>
      <rect x="274.9" y="171.81" width="17.18" height="17.18"/>
      <rect class="cls-1" x="292.08" y="171.81" width="17.18" height="17.18"/>
      <rect x="309.27" y="171.81" width="17.18" height="17.18"/>
      <rect x="17.18" y="189" width="17.18" height="17.18"/>
      <rect class="cls-1" x="34.36" y="189" width="17.18" height="17.18"/>
      <rect class="cls-1" x="51.54" y="189" width="17.18" height="17.18"/>
      <rect class="cls-1" x="68.73" y="189" width="17.18" height="17.18"/>
      <rect class="cls-1" x="85.91" y="189" width="17.18" height="17.18"/>
      <rect class="cls-1" x="103.09" y="189" width="17.18" height="17.18"/>
      <rect class="cls-1" x="120.27" y="189" width="17.18" height="17.18"/>
      <rect x="137.45" y="189" width="17.18" height="17.18"/>
      <rect x="154.63" y="189" width="17.18" height="17.18"/>
      <rect x="171.81" y="189" width="17.18" height="17.18"/>
      <rect class="cls-1" x="189" y="189" width="17.18" height="17.18"/>
      <rect class="cls-1" x="206.18" y="189" width="17.18" height="17.18"/>
      <rect class="cls-1" x="223.36" y="189" width="17.18" height="17.18"/>
      <rect class="cls-1" x="240.54" y="189" width="17.18" height="17.18"/>
      <rect class="cls-1" x="257.72" y="189" width="17.18" height="17.18"/>
      <rect class="cls-1" x="274.9" y="189" width="17.18" height="17.18"/>
      <rect x="292.08" y="189" width="17.18" height="17.18"/>
      <rect x="34.36" y="206.18" width="17.18" height="17.18"/>
      <rect x="51.54" y="206.18" width="17.18" height="17.18"/>
      <rect x="68.73" y="206.18" width="17.18" height="17.18"/>
      <rect x="85.91" y="206.18" width="17.18" height="17.18"/>
      <rect x="103.09" y="206.18" width="17.18" height="17.18"/>
      <rect x="120.27" y="206.18" width="17.18" height="17.18"/>
      <rect class="cls-1" x="137.45" y="206.18" width="17.18" height="17.18"/>
      <rect class="cls-1" x="154.63" y="206.18" width="17.18" height="17.18"/>
      <rect class="cls-1" x="171.81" y="206.18" width="17.18" height="17.18"/>
      <rect x="189" y="206.18" width="17.18" height="17.18"/>
      <rect x="206.18" y="206.18" width="17.18" height="17.18"/>
      <rect x="223.36" y="206.18" width="17.18" height="17.18"/>
      <rect x="240.54" y="206.18" width="17.18" height="17.18"/>
      <rect x="257.72" y="206.18" width="17.18" height="17.18"/>
      <rect x="274.9" y="206.18" width="17.18" height="17.18"/>
      <rect x="137.45" y="223.36" width="17.18" height="17.18"/>
      <rect x="154.63" y="223.36" width="17.18" height="17.18"/>
      <rect x="171.81" y="223.36" width="17.18" height="17.18"/>
    </g>
  </g>
</svg>