<?xml version="1.0" encoding="UTF-8"?>
<svg id="_圖層_2" data-name="圖層 2" xmlns="http://www.w3.org/2000/svg" viewBox="0 0 278.52 265.86">
  <defs>
    <style>
      .cls-1 {
        fill: #784d02;
      }

      .cls-2 {
        fill: #fbd700;
      }

      .cls-3 {
        fill: #fbf6d8;
      }
    </style>
  </defs>
  <g id="_Layer_" data-name="&amp;lt;Layer&amp;gt;">
    <g>
      <g>
        <rect class="cls-1" x="139.26" y="240.54" width="12.66" height="12.66"/>
        <rect class="cls-1" x="126.6" y="240.54" width="12.66" height="12.66"/>
        <rect class="cls-1" x="113.94" y="240.54" width="12.66" height="12.66"/>
        <rect class="cls-1" x="101.28" y="240.54" width="12.66" height="12.66"/>
        <rect class="cls-1" x="88.62" y="240.54" width="12.66" height="12.66"/>
        <rect class="cls-1" x="75.96" y="240.54" width="12.66" height="12.66"/>
        <rect class="cls-1" x="63.3" y="240.54" width="12.66" height="12.66"/>
        <rect class="cls-1" x="50.64" y="240.54" width="12.66" height="12.66"/>
        <rect class="cls-1" x="227.88" y="227.88" width="12.66" height="12.66"/>
        <rect class="cls-1" x="139.26" y="227.88" width="12.66" height="12.66"/>
        <rect class="cls-1" x="126.6" y="227.88" width="12.66" height="12.66"/>
        <rect class="cls-1" x="113.94" y="227.88" width="12.66" height="12.66"/>
        <rect class="cls-1" x="101.28" y="227.88" width="12.66" height="12.66"/>
        <rect class="cls-1" x="88.62" y="227.88" width="12.66" height="12.66"/>
        <rect class="cls-1" x="75.96" y="227.88" width="12.66" height="12.66"/>
        <rect class="cls-1" x="63.3" y="227.88" width="12.66" height="12.66"/>
        <rect class="cls-1" x="50.64" y="227.88" width="12.66" height="12.66"/>
        <rect class="cls-1" x="37.98" y="227.88" width="12.66" height="12.66"/>
        <rect class="cls-1" x="240.54" y="215.22" width="12.66" height="12.66"/>
        <rect class="cls-1" x="227.88" y="215.22" width="12.66" height="12.66"/>
        <rect class="cls-1" x="139.26" y="215.22" width="12.66" height="12.66"/>
        <rect class="cls-1" x="126.6" y="215.22" width="12.66" height="12.66"/>
        <rect class="cls-1" x="113.94" y="215.22" width="12.66" height="12.66"/>
        <rect class="cls-1" x="101.28" y="215.22" width="12.66" height="12.66"/>
        <rect class="cls-1" x="88.62" y="215.22" width="12.66" height="12.66"/>
        <rect class="cls-1" x="75.96" y="215.22" width="12.66" height="12.66"/>
        <rect class="cls-1" x="63.3" y="215.22" width="12.66" height="12.66"/>
        <rect class="cls-1" x="50.64" y="215.22" width="12.66" height="12.66"/>
        <rect class="cls-1" x="37.98" y="215.22" width="12.66" height="12.66"/>
        <rect class="cls-1" x="25.32" y="215.22" width="12.66" height="12.66"/>
        <rect class="cls-1" x="253.2" y="202.56" width="12.66" height="12.66"/>
        <rect class="cls-1" x="240.54" y="202.56" width="12.66" height="12.66"/>
        <rect class="cls-1" x="227.88" y="202.56" width="12.66" height="12.66"/>
        <rect class="cls-2" x="139.26" y="202.56" width="12.66" height="12.66"/>
        <rect class="cls-2" x="126.6" y="202.56" width="12.66" height="12.66"/>
        <rect class="cls-2" x="113.94" y="202.56" width="12.66" height="12.66"/>
        <rect class="cls-2" x="101.28" y="202.56" width="12.66" height="12.66"/>
        <rect class="cls-2" x="88.62" y="202.56" width="12.66" height="12.66"/>
        <rect class="cls-2" x="75.96" y="202.56" width="12.66" height="12.66"/>
        <rect class="cls-2" x="63.3" y="202.56" width="12.66" height="12.66"/>
        <rect class="cls-2" x="50.64" y="202.56" width="12.66" height="12.66"/>
        <rect class="cls-1" x="37.98" y="202.56" width="12.66" height="12.66"/>
        <rect class="cls-1" x="25.32" y="202.56" width="12.66" height="12.66"/>
        <rect class="cls-1" x="12.66" y="202.56" width="12.66" height="12.66"/>
        <rect class="cls-1" x="253.2" y="189.9" width="12.66" height="12.66"/>
        <rect class="cls-1" x="240.54" y="189.9" width="12.66" height="12.66"/>
        <rect class="cls-2" x="227.88" y="189.9" width="12.66" height="12.66"/>
        <rect class="cls-2" x="139.26" y="189.9" width="12.66" height="12.66"/>
        <rect class="cls-2" x="126.6" y="189.9" width="12.66" height="12.66"/>
        <rect class="cls-2" x="113.94" y="189.9" width="12.66" height="12.66"/>
        <rect class="cls-2" x="101.28" y="189.9" width="12.66" height="12.66"/>
        <rect class="cls-2" x="88.62" y="189.9" width="12.66" height="12.66"/>
        <rect class="cls-2" x="75.96" y="189.9" width="12.66" height="12.66"/>
        <rect class="cls-2" x="63.3" y="189.9" width="12.66" height="12.66"/>
        <rect class="cls-2" x="50.64" y="189.9" width="12.66" height="12.66"/>
        <rect class="cls-2" x="37.98" y="189.9" width="12.66" height="12.66"/>
        <rect class="cls-1" x="25.32" y="189.9" width="12.66" height="12.66"/>
        <rect class="cls-1" x="12.66" y="189.9" width="12.66" height="12.66"/>
        <rect class="cls-1" x="253.2" y="177.24" width="12.66" height="12.66"/>
        <rect class="cls-2" x="240.54" y="177.24" width="12.66" height="12.66"/>
        <rect class="cls-2" x="227.88" y="177.24" width="12.66" height="12.66"/>
        <rect class="cls-2" x="139.26" y="177.24" width="12.66" height="12.66"/>
        <rect class="cls-2" x="126.6" y="177.24" width="12.66" height="12.66"/>
        <rect class="cls-2" x="113.94" y="177.24" width="12.66" height="12.66"/>
        <rect class="cls-2" x="101.28" y="177.24" width="12.66" height="12.66"/>
        <rect class="cls-2" x="88.62" y="177.24" width="12.66" height="12.66"/>
        <rect class="cls-2" x="75.96" y="177.24" width="12.66" height="12.66"/>
        <rect class="cls-2" x="63.3" y="177.24" width="12.66" height="12.66"/>
        <rect class="cls-2" x="50.64" y="177.24" width="12.66" height="12.66"/>
        <rect class="cls-2" x="37.98" y="177.24" width="12.66" height="12.66"/>
        <rect class="cls-2" x="25.32" y="177.24" width="12.66" height="12.66"/>
        <rect class="cls-1" x="12.66" y="177.24" width="12.66" height="12.66"/>
        <rect class="cls-1" x="253.2" y="164.58" width="12.66" height="12.66"/>
        <rect class="cls-2" x="240.54" y="164.58" width="12.66" height="12.66"/>
        <rect class="cls-2" x="227.88" y="164.58" width="12.66" height="12.66"/>
        <rect class="cls-2" x="139.26" y="164.58" width="12.66" height="12.66"/>
        <rect class="cls-2" x="126.6" y="164.58" width="12.66" height="12.66"/>
        <rect class="cls-2" x="113.94" y="164.58" width="12.66" height="12.66"/>
        <rect class="cls-2" x="101.28" y="164.58" width="12.66" height="12.66"/>
        <rect class="cls-2" x="88.62" y="164.58" width="12.66" height="12.66"/>
        <rect class="cls-2" x="75.96" y="164.58" width="12.66" height="12.66"/>
        <rect class="cls-2" x="63.3" y="164.58" width="12.66" height="12.66"/>
        <rect class="cls-2" x="50.64" y="164.58" width="12.66" height="12.66"/>
        <rect class="cls-2" x="37.98" y="164.58" width="12.66" height="12.66"/>
        <rect class="cls-2" x="25.32" y="164.58" width="12.66" height="12.66"/>
        <rect class="cls-1" x="12.66" y="164.58" width="12.66" height="12.66"/>
        <rect class="cls-1" x="253.2" y="151.92" width="12.66" height="12.66"/>
        <rect class="cls-2" x="240.54" y="151.92" width="12.66" height="12.66"/>
        <rect class="cls-2" x="227.88" y="151.92" width="12.66" height="12.66"/>
        <rect class="cls-2" x="139.26" y="151.92" width="12.66" height="12.66"/>
        <rect class="cls-2" x="126.6" y="151.92" width="12.66" height="12.66"/>
        <rect class="cls-2" x="113.94" y="151.92" width="12.66" height="12.66"/>
        <rect class="cls-2" x="101.28" y="151.92" width="12.66" height="12.66"/>
        <rect class="cls-2" x="88.62" y="151.92" width="12.66" height="12.66"/>
        <rect class="cls-2" x="75.96" y="151.92" width="12.66" height="12.66"/>
        <rect class="cls-2" x="63.3" y="151.92" width="12.66" height="12.66"/>
        <rect class="cls-2" x="50.64" y="151.92" width="12.66" height="12.66"/>
        <rect class="cls-2" x="37.98" y="151.92" width="12.66" height="12.66"/>
        <rect class="cls-2" x="25.32" y="151.92" width="12.66" height="12.66"/>
        <rect class="cls-1" x="12.66" y="151.92" width="12.66" height="12.66"/>
        <rect class="cls-1" x="253.2" y="139.26" width="12.66" height="12.66"/>
        <rect class="cls-2" x="240.54" y="139.26" width="12.66" height="12.66"/>
        <rect class="cls-2" x="227.88" y="139.26" width="12.66" height="12.66"/>
        <rect class="cls-2" x="139.26" y="139.26" width="12.66" height="12.66"/>
        <rect class="cls-2" x="126.6" y="139.26" width="12.66" height="12.66"/>
        <rect class="cls-2" x="113.94" y="139.26" width="12.66" height="12.66"/>
        <rect class="cls-2" x="101.28" y="139.26" width="12.66" height="12.66"/>
        <rect class="cls-2" x="88.62" y="139.26" width="12.66" height="12.66"/>
        <rect class="cls-2" x="75.96" y="139.26" width="12.66" height="12.66"/>
        <rect class="cls-2" x="63.3" y="139.26" width="12.66" height="12.66"/>
        <rect class="cls-2" x="50.64" y="139.26" width="12.66" height="12.66"/>
        <rect class="cls-2" x="37.98" y="139.26" width="12.66" height="12.66"/>
        <rect class="cls-2" x="25.32" y="139.26" width="12.66" height="12.66"/>
        <rect class="cls-1" x="12.66" y="139.26" width="12.66" height="12.66"/>
        <rect class="cls-1" x="253.2" y="126.6" width="12.66" height="12.66"/>
        <rect class="cls-2" x="240.54" y="126.6" width="12.66" height="12.66"/>
        <rect class="cls-2" x="227.88" y="126.6" width="12.66" height="12.66"/>
        <rect class="cls-2" x="139.26" y="126.6" width="12.66" height="12.66"/>
        <rect class="cls-2" x="126.6" y="126.6" width="12.66" height="12.66"/>
        <rect class="cls-2" x="113.94" y="126.6" width="12.66" height="12.66"/>
        <rect class="cls-2" x="101.28" y="126.6" width="12.66" height="12.66"/>
        <rect class="cls-2" x="88.62" y="126.6" width="12.66" height="12.66"/>
        <rect class="cls-2" x="75.96" y="126.6" width="12.66" height="12.66"/>
        <rect class="cls-2" x="63.3" y="126.6" width="12.66" height="12.66"/>
        <rect class="cls-2" x="50.64" y="126.6" width="12.66" height="12.66"/>
        <rect class="cls-2" x="37.98" y="126.6" width="12.66" height="12.66"/>
        <rect class="cls-2" x="25.32" y="126.6" width="12.66" height="12.66"/>
        <rect class="cls-1" x="12.66" y="126.6" width="12.66" height="12.66"/>
        <rect class="cls-1" x="253.2" y="113.94" width="12.66" height="12.66"/>
        <rect class="cls-2" x="240.54" y="113.94" width="12.66" height="12.66"/>
        <rect class="cls-2" x="227.88" y="113.94" width="12.66" height="12.66"/>
        <rect class="cls-2" x="139.26" y="113.94" width="12.66" height="12.66"/>
        <rect class="cls-2" x="126.6" y="113.94" width="12.66" height="12.66"/>
        <rect class="cls-2" x="113.94" y="113.94" width="12.66" height="12.66"/>
        <rect class="cls-2" x="101.28" y="113.94" width="12.66" height="12.66"/>
        <rect class="cls-2" x="88.62" y="113.94" width="12.66" height="12.66"/>
        <rect class="cls-2" x="75.96" y="113.94" width="12.66" height="12.66"/>
        <rect class="cls-2" x="63.3" y="113.94" width="12.66" height="12.66"/>
        <rect class="cls-2" x="50.64" y="113.94" width="12.66" height="12.66"/>
        <rect class="cls-2" x="37.98" y="113.94" width="12.66" height="12.66"/>
        <rect class="cls-2" x="25.32" y="113.94" width="12.66" height="12.66"/>
        <rect class="cls-1" x="12.66" y="113.94" width="12.66" height="12.66"/>
        <rect class="cls-1" x="253.2" y="101.28" width="12.66" height="12.66"/>
        <rect class="cls-2" x="240.54" y="101.28" width="12.66" height="12.66"/>
        <rect class="cls-2" x="227.88" y="101.28" width="12.66" height="12.66"/>
        <rect class="cls-2" x="139.26" y="101.28" width="12.66" height="12.66"/>
        <rect class="cls-2" x="126.6" y="101.28" width="12.66" height="12.66"/>
        <rect class="cls-2" x="113.94" y="101.28" width="12.66" height="12.66"/>
        <rect class="cls-2" x="101.28" y="101.28" width="12.66" height="12.66"/>
        <rect class="cls-2" x="88.62" y="101.28" width="12.66" height="12.66"/>
        <rect class="cls-2" x="75.96" y="101.28" width="12.66" height="12.66"/>
        <rect class="cls-2" x="63.3" y="101.28" width="12.66" height="12.66"/>
        <rect class="cls-2" x="50.64" y="101.28" width="12.66" height="12.66"/>
        <rect class="cls-2" x="37.98" y="101.28" width="12.66" height="12.66"/>
        <rect class="cls-2" x="25.32" y="101.28" width="12.66" height="12.66"/>
        <rect class="cls-1" x="12.66" y="101.28" width="12.66" height="12.66"/>
        <rect class="cls-1" x="253.2" y="88.62" width="12.66" height="12.66"/>
        <rect class="cls-2" x="240.54" y="88.62" width="12.66" height="12.66"/>
        <rect class="cls-2" x="227.88" y="88.62" width="12.66" height="12.66"/>
        <rect class="cls-2" x="139.26" y="88.62" width="12.66" height="12.66"/>
        <rect class="cls-2" x="126.6" y="88.62" width="12.66" height="12.66"/>
        <rect class="cls-2" x="113.94" y="88.62" width="12.66" height="12.66"/>
        <rect class="cls-2" x="101.28" y="88.62" width="12.66" height="12.66"/>
        <rect class="cls-2" x="88.62" y="88.62" width="12.66" height="12.66"/>
        <rect class="cls-2" x="75.96" y="88.62" width="12.66" height="12.66"/>
        <rect class="cls-2" x="63.3" y="88.62" width="12.66" height="12.66"/>
        <rect class="cls-2" x="50.64" y="88.62" width="12.66" height="12.66"/>
        <rect class="cls-2" x="37.98" y="88.62" width="12.66" height="12.66"/>
        <rect class="cls-2" x="25.32" y="88.62" width="12.66" height="12.66"/>
        <rect class="cls-1" x="12.66" y="88.62" width="12.66" height="12.66"/>
        <rect class="cls-1" x="253.2" y="75.96" width="12.66" height="12.66"/>
        <rect class="cls-2" x="240.54" y="75.96" width="12.66" height="12.66"/>
        <rect class="cls-2" x="227.88" y="75.96" width="12.66" height="12.66"/>
        <rect class="cls-2" x="139.26" y="75.96" width="12.66" height="12.66"/>
        <rect class="cls-2" x="126.6" y="75.96" width="12.66" height="12.66"/>
        <rect class="cls-2" x="113.94" y="75.96" width="12.66" height="12.66"/>
        <rect class="cls-2" x="101.28" y="75.96" width="12.66" height="12.66"/>
        <rect class="cls-2" x="88.62" y="75.96" width="12.66" height="12.66"/>
        <rect class="cls-2" x="75.96" y="75.96" width="12.66" height="12.66"/>
        <rect class="cls-2" x="63.3" y="75.96" width="12.66" height="12.66"/>
        <rect class="cls-2" x="50.64" y="75.96" width="12.66" height="12.66"/>
        <rect class="cls-2" x="37.98" y="75.96" width="12.66" height="12.66"/>
        <rect class="cls-2" x="25.32" y="75.96" width="12.66" height="12.66"/>
        <rect class="cls-1" x="12.66" y="75.96" width="12.66" height="12.66"/>
        <rect class="cls-1" x="253.2" y="63.3" width="12.66" height="12.66"/>
        <rect class="cls-2" x="240.54" y="63.3" width="12.66" height="12.66"/>
        <rect class="cls-2" x="227.88" y="63.3" width="12.66" height="12.66"/>
        <rect class="cls-2" x="139.26" y="63.3" width="12.66" height="12.66"/>
        <rect class="cls-2" x="126.6" y="63.3" width="12.66" height="12.66"/>
        <rect class="cls-2" x="113.94" y="63.3" width="12.66" height="12.66"/>
        <rect class="cls-2" x="101.28" y="63.3" width="12.66" height="12.66"/>
        <rect class="cls-2" x="88.62" y="63.3" width="12.66" height="12.66"/>
        <rect class="cls-2" x="75.96" y="63.3" width="12.66" height="12.66"/>
        <rect class="cls-2" x="63.3" y="63.3" width="12.66" height="12.66"/>
        <rect class="cls-2" x="50.64" y="63.3" width="12.66" height="12.66"/>
        <rect class="cls-2" x="37.98" y="63.3" width="12.66" height="12.66"/>
        <rect class="cls-2" x="25.32" y="63.3" width="12.66" height="12.66"/>
        <rect class="cls-1" x="12.66" y="63.3" width="12.66" height="12.66"/>
        <rect class="cls-1" x="253.2" y="50.64" width="12.66" height="12.66"/>
        <rect class="cls-2" x="240.54" y="50.64" width="12.66" height="12.66"/>
        <rect class="cls-2" x="227.88" y="50.64" width="12.66" height="12.66"/>
        <rect class="cls-2" x="139.26" y="50.64" width="12.66" height="12.66"/>
        <rect class="cls-2" x="126.6" y="50.64" width="12.66" height="12.66"/>
        <rect class="cls-2" x="113.94" y="50.64" width="12.66" height="12.66"/>
        <rect class="cls-2" x="101.28" y="50.64" width="12.66" height="12.66"/>
        <rect class="cls-2" x="88.62" y="50.64" width="12.66" height="12.66"/>
        <rect class="cls-2" x="75.96" y="50.64" width="12.66" height="12.66"/>
        <rect class="cls-2" x="63.3" y="50.64" width="12.66" height="12.66"/>
        <rect class="cls-2" x="50.64" y="50.64" width="12.66" height="12.66"/>
        <rect class="cls-2" x="37.98" y="50.64" width="12.66" height="12.66"/>
        <rect class="cls-2" x="25.32" y="50.64" width="12.66" height="12.66"/>
        <rect class="cls-1" x="12.66" y="50.64" width="12.66" height="12.66"/>
        <rect class="cls-1" x="240.54" y="37.98" width="12.66" height="12.66"/>
        <rect class="cls-2" x="227.88" y="37.98" width="12.66" height="12.66"/>
        <rect class="cls-2" x="139.26" y="37.98" width="12.66" height="12.66"/>
        <rect class="cls-2" x="126.6" y="37.98" width="12.66" height="12.66"/>
        <rect class="cls-2" x="113.94" y="37.98" width="12.66" height="12.66"/>
        <rect class="cls-2" x="101.28" y="37.98" width="12.66" height="12.66"/>
        <rect class="cls-2" x="88.62" y="37.98" width="12.66" height="12.66"/>
        <rect class="cls-2" x="75.96" y="37.98" width="12.66" height="12.66"/>
        <rect class="cls-2" x="63.3" y="37.98" width="12.66" height="12.66"/>
        <rect class="cls-2" x="50.64" y="37.98" width="12.66" height="12.66"/>
        <rect class="cls-2" x="37.98" y="37.98" width="12.66" height="12.66"/>
        <rect class="cls-1" x="25.32" y="37.98" width="12.66" height="12.66"/>
        <rect class="cls-1" x="227.88" y="25.32" width="12.66" height="12.66"/>
        <rect class="cls-2" x="139.26" y="25.32" width="12.66" height="12.66"/>
        <rect class="cls-2" x="126.6" y="25.32" width="12.66" height="12.66"/>
        <rect class="cls-2" x="113.94" y="25.32" width="12.66" height="12.66"/>
        <rect class="cls-2" x="101.28" y="25.32" width="12.66" height="12.66"/>
        <rect class="cls-2" x="88.62" y="25.32" width="12.66" height="12.66"/>
        <rect class="cls-2" x="75.96" y="25.32" width="12.66" height="12.66"/>
        <rect class="cls-2" x="63.3" y="25.32" width="12.66" height="12.66"/>
        <rect class="cls-2" x="50.64" y="25.32" width="12.66" height="12.66"/>
        <rect class="cls-1" x="37.98" y="25.32" width="12.66" height="12.66"/>
        <rect class="cls-1" x="139.26" y="12.66" width="12.66" height="12.66"/>
        <rect class="cls-1" x="126.6" y="12.66" width="12.66" height="12.66"/>
        <rect class="cls-1" x="113.94" y="12.66" width="12.66" height="12.66"/>
        <rect class="cls-1" x="101.28" y="12.66" width="12.66" height="12.66"/>
        <rect class="cls-1" x="88.62" y="12.66" width="12.66" height="12.66"/>
        <rect class="cls-1" x="75.96" y="12.66" width="12.66" height="12.66"/>
        <rect class="cls-1" x="202.56" y="240.54" width="12.66" height="12.66"/>
        <rect class="cls-1" x="189.9" y="240.54" width="12.66" height="12.66"/>
        <rect class="cls-1" x="177.24" y="240.54" width="12.66" height="12.66"/>
        <rect class="cls-1" x="164.58" y="240.54" width="12.66" height="12.66"/>
        <rect class="cls-1" x="151.92" y="240.54" width="12.66" height="12.66"/>
        <rect class="cls-1" x="202.56" y="227.88" width="12.66" height="12.66"/>
        <rect class="cls-1" x="189.9" y="227.88" width="12.66" height="12.66"/>
        <rect class="cls-1" x="177.24" y="227.88" width="12.66" height="12.66"/>
        <rect class="cls-1" x="164.58" y="227.88" width="12.66" height="12.66"/>
        <rect class="cls-1" x="151.92" y="227.88" width="12.66" height="12.66"/>
        <rect class="cls-1" x="202.56" y="215.22" width="12.66" height="12.66"/>
        <rect class="cls-1" x="189.9" y="215.22" width="12.66" height="12.66"/>
        <rect class="cls-1" x="177.24" y="215.22" width="12.66" height="12.66"/>
        <rect class="cls-1" x="164.58" y="215.22" width="12.66" height="12.66"/>
        <rect class="cls-1" x="151.92" y="215.22" width="12.66" height="12.66"/>
        <rect class="cls-2" x="202.56" y="202.56" width="12.66" height="12.66"/>
        <rect class="cls-2" x="189.9" y="202.56" width="12.66" height="12.66"/>
        <rect class="cls-2" x="177.24" y="202.56" width="12.66" height="12.66"/>
        <rect class="cls-2" x="164.58" y="202.56" width="12.66" height="12.66"/>
        <rect class="cls-2" x="151.92" y="202.56" width="12.66" height="12.66"/>
        <rect class="cls-2" x="202.56" y="189.9" width="12.66" height="12.66"/>
        <rect class="cls-2" x="189.9" y="189.9" width="12.66" height="12.66"/>
        <rect class="cls-2" x="177.24" y="189.9" width="12.66" height="12.66"/>
        <rect class="cls-2" x="164.58" y="189.9" width="12.66" height="12.66"/>
        <rect class="cls-2" x="151.92" y="189.9" width="12.66" height="12.66"/>
        <rect class="cls-2" x="202.56" y="177.24" width="12.66" height="12.66"/>
        <rect class="cls-2" x="189.9" y="177.24" width="12.66" height="12.66"/>
        <rect class="cls-2" x="177.24" y="177.24" width="12.66" height="12.66"/>
        <rect class="cls-2" x="164.58" y="177.24" width="12.66" height="12.66"/>
        <rect class="cls-2" x="151.92" y="177.24" width="12.66" height="12.66"/>
        <rect class="cls-2" x="202.56" y="164.58" width="12.66" height="12.66"/>
        <rect class="cls-2" x="189.9" y="164.58" width="12.66" height="12.66"/>
        <rect class="cls-2" x="177.24" y="164.58" width="12.66" height="12.66"/>
        <rect class="cls-2" x="164.58" y="164.58" width="12.66" height="12.66"/>
        <rect class="cls-2" x="151.92" y="164.58" width="12.66" height="12.66"/>
        <rect class="cls-2" x="202.56" y="151.92" width="12.66" height="12.66"/>
        <rect class="cls-2" x="189.9" y="151.92" width="12.66" height="12.66"/>
        <rect class="cls-2" x="177.24" y="151.92" width="12.66" height="12.66"/>
        <rect class="cls-2" x="164.58" y="151.92" width="12.66" height="12.66"/>
        <rect class="cls-2" x="151.92" y="151.92" width="12.66" height="12.66"/>
        <rect class="cls-2" x="202.56" y="139.26" width="12.66" height="12.66"/>
        <rect class="cls-2" x="189.9" y="139.26" width="12.66" height="12.66"/>
        <rect class="cls-2" x="177.24" y="139.26" width="12.66" height="12.66"/>
        <rect class="cls-2" x="164.58" y="139.26" width="12.66" height="12.66"/>
        <rect class="cls-2" x="151.92" y="139.26" width="12.66" height="12.66"/>
        <rect class="cls-2" x="202.56" y="126.6" width="12.66" height="12.66"/>
        <rect class="cls-2" x="189.9" y="126.6" width="12.66" height="12.66"/>
        <rect class="cls-2" x="177.24" y="126.6" width="12.66" height="12.66"/>
        <rect class="cls-2" x="164.58" y="126.6" width="12.66" height="12.66"/>
        <rect class="cls-2" x="151.92" y="126.6" width="12.66" height="12.66"/>
        <rect class="cls-2" x="202.56" y="113.94" width="12.66" height="12.66"/>
        <rect class="cls-2" x="189.9" y="113.94" width="12.66" height="12.66"/>
        <rect class="cls-2" x="177.24" y="113.94" width="12.66" height="12.66"/>
        <rect class="cls-2" x="164.58" y="113.94" width="12.66" height="12.66"/>
        <rect class="cls-2" x="151.92" y="113.94" width="12.66" height="12.66"/>
        <rect class="cls-2" x="202.56" y="101.28" width="12.66" height="12.66"/>
        <rect class="cls-2" x="189.9" y="101.28" width="12.66" height="12.66"/>
        <rect class="cls-2" x="177.24" y="101.28" width="12.66" height="12.66"/>
        <rect class="cls-2" x="164.58" y="101.28" width="12.66" height="12.66"/>
        <rect class="cls-2" x="151.92" y="101.28" width="12.66" height="12.66"/>
        <rect class="cls-2" x="202.56" y="88.62" width="12.66" height="12.66"/>
        <rect class="cls-2" x="189.9" y="88.62" width="12.66" height="12.66"/>
        <rect class="cls-2" x="177.24" y="88.62" width="12.66" height="12.66"/>
        <rect class="cls-2" x="164.58" y="88.62" width="12.66" height="12.66"/>
        <rect class="cls-2" x="151.92" y="88.62" width="12.66" height="12.66"/>
        <rect class="cls-2" x="202.56" y="75.96" width="12.66" height="12.66"/>
        <rect class="cls-2" x="189.9" y="75.96" width="12.66" height="12.66"/>
        <rect class="cls-2" x="177.24" y="75.96" width="12.66" height="12.66"/>
        <rect class="cls-2" x="164.58" y="75.96" width="12.66" height="12.66"/>
        <rect class="cls-2" x="151.92" y="75.96" width="12.66" height="12.66"/>
        <rect class="cls-2" x="202.56" y="63.3" width="12.66" height="12.66"/>
        <rect class="cls-2" x="189.9" y="63.3" width="12.66" height="12.66"/>
        <rect class="cls-2" x="177.24" y="63.3" width="12.66" height="12.66"/>
        <rect class="cls-2" x="164.58" y="63.3" width="12.66" height="12.66"/>
        <rect class="cls-2" x="151.92" y="63.3" width="12.66" height="12.66"/>
        <rect class="cls-2" x="202.56" y="50.64" width="12.66" height="12.66"/>
        <rect class="cls-2" x="189.9" y="50.64" width="12.66" height="12.66"/>
        <rect class="cls-2" x="177.24" y="50.64" width="12.66" height="12.66"/>
        <rect class="cls-2" x="164.58" y="50.64" width="12.66" height="12.66"/>
        <rect class="cls-2" x="151.92" y="50.64" width="12.66" height="12.66"/>
        <rect class="cls-2" x="202.56" y="37.98" width="12.66" height="12.66"/>
        <rect class="cls-2" x="189.9" y="37.98" width="12.66" height="12.66"/>
        <rect class="cls-2" x="177.24" y="37.98" width="12.66" height="12.66"/>
        <rect class="cls-2" x="164.58" y="37.98" width="12.66" height="12.66"/>
        <rect class="cls-2" x="151.92" y="37.98" width="12.66" height="12.66"/>
        <rect class="cls-2" x="202.56" y="25.32" width="12.66" height="12.66"/>
        <rect class="cls-2" x="189.9" y="25.32" width="12.66" height="12.66"/>
        <rect class="cls-2" x="177.24" y="25.32" width="12.66" height="12.66"/>
        <rect class="cls-2" x="164.58" y="25.32" width="12.66" height="12.66"/>
        <rect class="cls-2" x="151.92" y="25.32" width="12.66" height="12.66"/>
        <rect class="cls-1" x="202.56" y="12.66" width="12.66" height="12.66"/>
        <rect class="cls-1" x="215.22" y="240.54" width="12.66" height="12.66"/>
        <rect class="cls-1" x="215.22" y="227.88" width="12.66" height="12.66"/>
        <rect class="cls-1" x="215.22" y="215.22" width="12.66" height="12.66"/>
        <rect class="cls-2" x="215.22" y="202.56" width="12.66" height="12.66"/>
        <rect class="cls-2" x="215.22" y="189.9" width="12.66" height="12.66"/>
        <rect class="cls-2" x="215.22" y="177.24" width="12.66" height="12.66"/>
        <rect class="cls-2" x="215.22" y="164.58" width="12.66" height="12.66"/>
        <rect class="cls-2" x="215.22" y="151.92" width="12.66" height="12.66"/>
        <rect class="cls-2" x="215.22" y="139.26" width="12.66" height="12.66"/>
        <rect class="cls-2" x="215.22" y="126.6" width="12.66" height="12.66"/>
        <rect class="cls-2" x="215.22" y="113.94" width="12.66" height="12.66"/>
        <rect class="cls-2" x="215.22" y="101.28" width="12.66" height="12.66"/>
        <rect class="cls-2" x="215.22" y="88.62" width="12.66" height="12.66"/>
        <rect class="cls-2" x="215.22" y="75.96" width="12.66" height="12.66"/>
        <rect class="cls-2" x="215.22" y="63.3" width="12.66" height="12.66"/>
        <rect class="cls-2" x="215.22" y="50.64" width="12.66" height="12.66"/>
        <rect class="cls-2" x="215.22" y="37.98" width="12.66" height="12.66"/>
        <rect class="cls-2" x="215.22" y="25.32" width="12.66" height="12.66"/>
        <rect class="cls-1" x="215.22" y="12.66" width="12.66" height="12.66"/>
        <rect class="cls-1" x="189.9" y="12.66" width="12.66" height="12.66"/>
        <rect class="cls-1" x="177.24" y="12.66" width="12.66" height="12.66"/>
        <rect class="cls-1" x="164.58" y="12.66" width="12.66" height="12.66"/>
        <rect class="cls-1" x="151.92" y="12.66" width="12.66" height="12.66"/>
        <rect class="cls-1" x="63.3" y="12.66" width="12.66" height="12.66"/>
        <rect class="cls-1" x="50.64" y="12.66" width="12.66" height="12.66"/>
        <g>
          <rect class="cls-3" x="227.88" y="240.54" width="12.66" height="12.66"/>
          <rect class="cls-3" x="240.54" y="227.88" width="12.66" height="12.66"/>
          <rect class="cls-3" x="253.2" y="215.22" width="12.66" height="12.66"/>
          <rect class="cls-3" x="265.86" y="202.56" width="12.66" height="12.66"/>
          <rect class="cls-3" x="265.86" y="189.9" width="12.66" height="12.66"/>
          <rect class="cls-3" x="265.86" y="177.24" width="12.66" height="12.66"/>
          <rect class="cls-3" x="265.86" y="164.58" width="12.66" height="12.66"/>
          <rect class="cls-3" x="265.86" y="151.92" width="12.66" height="12.66"/>
          <rect class="cls-3" x="265.86" y="139.26" width="12.66" height="12.66"/>
          <rect class="cls-3" x="265.86" y="126.6" width="12.66" height="12.66"/>
          <rect class="cls-3" x="265.86" y="113.94" width="12.66" height="12.66"/>
          <rect class="cls-3" x="265.86" y="101.28" width="12.66" height="12.66"/>
          <rect class="cls-3" x="265.86" y="88.62" width="12.66" height="12.66"/>
          <rect class="cls-3" x="265.86" y="75.96" width="12.66" height="12.66"/>
          <rect class="cls-3" x="265.86" y="63.3" width="12.66" height="12.66"/>
          <rect class="cls-3" x="265.86" y="50.64" width="12.66" height="12.66"/>
          <rect class="cls-3" x="253.2" y="37.98" width="12.66" height="12.66"/>
          <rect class="cls-3" x="240.54" y="25.32" width="12.66" height="12.66"/>
          <rect class="cls-3" x="227.88" y="12.66" width="12.66" height="12.66"/>
          <rect class="cls-3" x="37.98" y="240.54" width="12.66" height="12.66"/>
          <rect class="cls-3" x="25.32" y="227.88" width="12.66" height="12.66"/>
          <rect class="cls-3" x="12.66" y="215.22" width="12.66" height="12.66"/>
          <rect class="cls-3" y="202.56" width="12.66" height="12.66"/>
          <rect class="cls-3" y="189.9" width="12.66" height="12.66"/>
          <rect class="cls-3" y="177.24" width="12.66" height="12.66"/>
          <rect class="cls-3" y="164.58" width="12.66" height="12.66"/>
          <rect class="cls-3" y="151.92" width="12.66" height="12.66"/>
          <rect class="cls-3" y="139.26" width="12.66" height="12.66"/>
          <rect class="cls-3" y="126.6" width="12.66" height="12.66"/>
          <rect class="cls-3" y="113.94" width="12.66" height="12.66"/>
          <rect class="cls-3" y="101.28" width="12.66" height="12.66"/>
          <rect class="cls-3" y="88.62" width="12.66" height="12.66"/>
          <rect class="cls-3" y="75.96" width="12.66" height="12.66"/>
          <rect class="cls-3" y="63.3" width="12.66" height="12.66"/>
          <rect class="cls-3" y="50.64" width="12.66" height="12.66"/>
          <rect class="cls-3" x="12.66" y="37.98" width="12.66" height="12.66"/>
          <rect class="cls-3" x="25.32" y="25.32" width="12.66" height="12.66"/>
          <rect class="cls-3" x="37.98" y="12.66" width="12.66" height="12.66"/>
          <rect class="cls-3" x="139.26" y="253.2" width="12.66" height="12.66"/>
          <rect class="cls-3" x="126.6" y="253.2" width="12.66" height="12.66"/>
          <rect class="cls-3" x="113.94" y="253.2" width="12.66" height="12.66"/>
          <rect class="cls-3" x="101.28" y="253.2" width="12.66" height="12.66"/>
          <rect class="cls-3" x="88.62" y="253.2" width="12.66" height="12.66"/>
          <rect class="cls-3" x="75.96" y="253.2" width="12.66" height="12.66"/>
          <rect class="cls-3" x="63.3" y="253.2" width="12.66" height="12.66"/>
          <rect class="cls-3" x="50.64" y="253.2" width="12.66" height="12.66"/>
          <rect class="cls-3" x="202.56" y="253.2" width="12.66" height="12.66"/>
          <rect class="cls-3" x="189.9" y="253.2" width="12.66" height="12.66"/>
          <rect class="cls-3" x="177.24" y="253.2" width="12.66" height="12.66"/>
          <rect class="cls-3" x="164.58" y="253.2" width="12.66" height="12.66"/>
          <rect class="cls-3" x="151.92" y="253.2" width="12.66" height="12.66"/>
          <rect class="cls-3" x="215.22" y="253.2" width="12.66" height="12.66"/>
          <rect class="cls-3" x="139.26" width="12.66" height="12.66"/>
          <rect class="cls-3" x="126.6" width="12.66" height="12.66"/>
          <rect class="cls-3" x="113.94" width="12.66" height="12.66"/>
          <rect class="cls-3" x="101.28" width="12.66" height="12.66"/>
          <rect class="cls-3" x="88.62" width="12.66" height="12.66"/>
          <rect class="cls-3" x="75.96" width="12.66" height="12.66"/>
          <rect class="cls-3" x="202.56" width="12.66" height="12.66"/>
          <rect class="cls-3" x="215.22" width="12.66" height="12.66"/>
          <rect class="cls-3" x="189.9" width="12.66" height="12.66"/>
          <rect class="cls-3" x="177.24" width="12.66" height="12.66"/>
          <rect class="cls-3" x="164.58" width="12.66" height="12.66"/>
          <rect class="cls-3" x="151.92" width="12.66" height="12.66"/>
          <rect class="cls-3" x="63.3" width="12.66" height="12.66"/>
          <rect class="cls-3" x="50.64" width="12.66" height="12.66"/>
        </g>
      </g>
      <g>
        <rect class="cls-1" x="139.26" y="177.24" width="12.66" height="12.66"/>
        <rect class="cls-1" x="126.6" y="177.24" width="12.66" height="12.66"/>
        <rect class="cls-1" x="113.94" y="177.24" width="12.66" height="12.66"/>
        <rect class="cls-1" x="101.28" y="177.24" width="12.66" height="12.66"/>
        <rect class="cls-1" x="151.92" y="164.58" width="12.66" height="12.66"/>
        <rect class="cls-1" x="139.26" y="164.58" width="12.66" height="12.66"/>
        <rect class="cls-1" x="126.6" y="164.58" width="12.66" height="12.66"/>
        <rect class="cls-1" x="113.94" y="164.58" width="12.66" height="12.66"/>
        <rect class="cls-1" x="101.28" y="164.58" width="12.66" height="12.66"/>
        <rect class="cls-1" x="88.62" y="164.58" width="12.66" height="12.66"/>
        <rect class="cls-1" x="151.92" y="151.92" width="12.66" height="12.66"/>
        <rect class="cls-1" x="139.26" y="151.92" width="12.66" height="12.66"/>
        <rect class="cls-1" x="126.6" y="151.92" width="12.66" height="12.66"/>
        <rect class="cls-1" x="113.94" y="151.92" width="12.66" height="12.66"/>
        <rect class="cls-1" x="101.28" y="151.92" width="12.66" height="12.66"/>
        <rect class="cls-1" x="88.62" y="151.92" width="12.66" height="12.66"/>
        <rect class="cls-1" x="151.92" y="139.26" width="12.66" height="12.66"/>
        <rect class="cls-1" x="139.26" y="139.26" width="12.66" height="12.66"/>
        <rect class="cls-1" x="126.6" y="139.26" width="12.66" height="12.66"/>
        <rect class="cls-1" x="113.94" y="139.26" width="12.66" height="12.66"/>
        <rect class="cls-1" x="101.28" y="139.26" width="12.66" height="12.66"/>
        <rect class="cls-1" x="189.9" y="113.94" width="12.66" height="12.66"/>
        <rect class="cls-1" x="177.24" y="126.6" width="12.66" height="12.66"/>
        <rect class="cls-1" x="151.92" y="113.94" width="12.66" height="12.66"/>
        <rect class="cls-1" x="139.26" y="113.94" width="12.66" height="12.66"/>
        <rect class="cls-1" x="151.92" y="126.6" width="12.66" height="12.66"/>
        <rect class="cls-1" x="139.26" y="126.6" width="12.66" height="12.66"/>
        <rect class="cls-1" x="189.9" y="101.28" width="12.66" height="12.66"/>
        <rect class="cls-1" x="177.24" y="101.28" width="12.66" height="12.66"/>
        <rect class="cls-1" x="151.92" y="101.28" width="12.66" height="12.66"/>
        <rect class="cls-1" x="139.26" y="101.28" width="12.66" height="12.66"/>
        <rect class="cls-1" x="189.9" y="88.62" width="12.66" height="12.66"/>
        <rect class="cls-1" x="177.24" y="88.62" width="12.66" height="12.66"/>
        <rect class="cls-1" x="164.58" y="88.62" width="12.66" height="12.66"/>
        <rect class="cls-1" x="151.92" y="88.62" width="12.66" height="12.66"/>
        <rect class="cls-1" x="139.26" y="88.62" width="12.66" height="12.66"/>
        <rect class="cls-1" x="177.24" y="75.96" width="12.66" height="12.66"/>
        <rect class="cls-1" x="164.58" y="75.96" width="12.66" height="12.66"/>
        <rect class="cls-1" x="151.92" y="75.96" width="12.66" height="12.66"/>
        <rect class="cls-1" x="139.26" y="75.96" width="12.66" height="12.66"/>
        <rect class="cls-1" x="164.58" y="63.3" width="12.66" height="12.66"/>
        <rect class="cls-1" x="151.92" y="63.3" width="12.66" height="12.66"/>
        <rect class="cls-1" x="139.26" y="63.3" width="12.66" height="12.66"/>
        <rect class="cls-1" x="151.92" y="50.64" width="12.66" height="12.66"/>
        <rect class="cls-1" x="139.26" y="50.64" width="12.66" height="12.66"/>
      </g>
      <g>
        <rect class="cls-3" x="227.88" y="75.96" width="12.66" height="12.66"/>
        <rect class="cls-3" x="215.22" y="63.3" width="12.66" height="12.66"/>
        <rect class="cls-3" x="202.56" y="63.3" width="12.66" height="12.66"/>
        <rect class="cls-3" x="215.22" y="50.64" width="12.66" height="12.66"/>
        <rect class="cls-3" x="202.56" y="50.64" width="12.66" height="12.66"/>
        <rect class="cls-3" x="189.9" y="50.64" width="12.66" height="12.66"/>
        <rect class="cls-3" x="202.56" y="37.98" width="12.66" height="12.66"/>
        <rect class="cls-3" x="189.9" y="37.98" width="12.66" height="12.66"/>
      </g>
    </g>
  </g>
</svg>