<svg xmlns="http://www.w3.org/2000/svg" width="960" height="540" viewBox="0 0 960 540" shape-rendering="crispEdges"><rect width="960" height="540" fill="#c5e3e7"/><path d="M0 70h120V55h110v15h72v22H0m740 20h90V90h130v40H740" fill="#eff5e9"/><path d="M0 215h960v210H0" fill="#aac6aa"/><path d="M0 410h960v130H0" fill="#d7c4ad"/><path d="M0 450h960m-960 42h960M160 410L90 540m290-130-25 130m250-130 25 130m230-130 70 130" stroke="#c5ae9e" stroke-width="4"/><g fill="#e6d4b8" stroke="#827783" stroke-width="5"><path d="M0 175h170v205H0m790-205h170v205H790"/></g><path d="M0 166h177v18H0m783-18h177v18H783" fill="#9d8491"/><g fill="#8bafb9"><path d="M20 206h40v48H20m23-48v48m42-48h40v48H85m-65 26h40v48H20m65-48h40v48H85m730-122h40v48h-40m65-48h40v48h-40m-65 26h40v48h-40m65-48h40v48h-40"/></g><g stroke="#ecdfc7" stroke-width="5"><path d="M40 206v48m65-48v48m730-48v48m65-48v48"/></g><g fill="#8c7370"><path d="M178 301h20v126h-20m584-126h20v126h-20"/></g><g fill="#6d9e86" stroke="#54836f" stroke-width="5"><path d="M145 240h25v-29h38v20h27v32h17v61h-27v20h-72v-19h-22v-53h14Zm565 0h25v-29h38v20h27v32h17v61h-27v20h-72v-19h-22v-53h14Z"/></g><path d="M158 245h22v-17h22v22h-22v22h-22m565-27h22v-17h22v22h-22v22h-22" fill="#92b892"/><path d="M145 426h86v8h-86m565-8h86v8h-86" fill="#739a81"/></svg>
