<svg xmlns="http://www.w3.org/2000/svg" width="192" height="264" viewBox="0 0 64 88" shape-rendering="crispEdges"><ellipse cx="32" cy="84" rx="19" ry="3" fill="#665064" opacity=".18"/><path d="M19 22H45V61H40V65H20Z" fill="#d77f7d" stroke="#392e3c" stroke-width="2" stroke-linejoin="miter"/><path d="M23 43H17V61H18V67H24V59H27Z" fill="#f4c1a9" stroke="#392e3c" stroke-width="2" stroke-linejoin="miter"/><path d="M41 43H47V61H46V67H40V59H37Z" fill="#f4c1a9" stroke="#392e3c" stroke-width="2" stroke-linejoin="miter"/><path d="M21 62H43L45 71H19Z" fill="#514658" stroke="#392e3c" stroke-width="2" stroke-linejoin="miter"/><path d="M23 72H29V81H22Z" fill="#f4c1a9" stroke="#392e3c" stroke-width="2" stroke-linejoin="miter"/><path d="M35 72H41V81H35Z" fill="#f4c1a9" stroke="#392e3c" stroke-width="2" stroke-linejoin="miter"/><path d="M21 80H30V85H19V83H21Z" fill="#3c3444" stroke="#392e3c" stroke-width="2" stroke-linejoin="miter"/><path d="M34 80H42V83H45V85H34Z" fill="#3c3444" stroke="#392e3c" stroke-width="2" stroke-linejoin="miter"/><path d="M24 41H40L44 47V63H20V47Z" fill="#fff2df" stroke="#392e3c" stroke-width="2" stroke-linejoin="miter"/><path d="M28 36H36V45H28Z" fill="#f4c1a9" stroke="#392e3c" stroke-width="2" stroke-linejoin="miter"/><path d="M20 24H44V35H41V40H36V43H28V40H23V35H20Z" fill="#f4c1a9" stroke="#392e3c" stroke-width="2" stroke-linejoin="miter"/><rect x="23" y="35" width="5" height="2" fill="#e79a98"/><rect x="37" y="35" width="5" height="2" fill="#e79a98"/><rect x="25" y="30" width="3" height="5" fill="#483441"/><rect x="36" y="30" width="3" height="5" fill="#483441"/><rect x="30" y="38" width="4" height="1" fill="#a66e71"/><path d="M18 28V17H22V13H28V10H35V13H41V16H45V23H47V32H41V25H36V28H30V23H25V29Z" fill="#d77f7d" stroke="#392e3c" stroke-width="2" stroke-linejoin="miter"/><path d="M21 19V16H28V13H35V16H39V20H32V22H25V25H21Z" fill="#f0a19a" stroke="#392e3c" stroke-width="2" stroke-linejoin="miter"/><path d="M19 29H23V53H19Z" fill="#d77f7d" stroke="#392e3c" stroke-width="2" stroke-linejoin="miter"/><path d="M42 27H46V54H42Z" fill="#d77f7d" stroke="#392e3c" stroke-width="2" stroke-linejoin="miter"/></svg>